<?xml version="1.0" encoding="iso-8859-1"?>
<!-- Generator: Adobe Illustrator 19.0.0, SVG Export Plug-In . SVG Version: 6.00 Build 0)  -->
<svg version="1.1" id="Layer_1" xmlns="http://www.w3.org/2000/svg" xmlns:xlink="http://www.w3.org/1999/xlink" x="0px" y="0px"
	 viewBox="0 0 512 512" style="enable-background:new 0 0 512 512;" xml:space="preserve">
<polygon style="fill:#D5F6F5;" points="449.361,117.106 394.893,66.673 416.68,405.787 449.361,405.787 "/>
<polygon style="fill:#FFFFFF;" points="8.17,117.106 8.17,405.787 416.68,405.787 416.68,84.426 "/>
<polygon style="fill:#FE5F1A;" points="416.68,51.745 394.893,84.426 416.68,117.106 449.361,117.106 449.361,51.745 "/>
<rect x="302.298" y="51.745" style="fill:#FE834D;" width="114.383" height="65.362"/>
<polygon style="fill:#02ACAB;" points="269.617,51.745 247.83,84.426 269.617,117.106 302.298,117.106 302.298,51.745 "/>
<rect x="8.17" y="51.745" style="fill:#42C8C6;" width="261.447" height="65.362"/>
<path style="fill:#02ACAB;" d="M394.893,242.383v217.872c60.165,0,108.936-48.771,108.936-108.936S455.058,242.383,394.893,242.383z
	"/>
<path style="fill:#42C8C6;" d="M394.893,242.383c42.115,0,76.255,48.771,76.255,108.936s-34.141,108.936-76.255,108.936
	c-60.165,0-108.936-48.771-108.936-108.936S334.727,242.383,394.893,242.383z"/>
<path style="fill:#FFFFFF;" d="M449.361,334.979h-38.128v-38.128c0-9.024-7.316-16.34-16.34-16.34c-9.024,0-16.34,7.316-16.34,16.34
	v38.128h-38.128c-9.024,0-16.34,7.316-16.34,16.34c0,9.024,7.316,16.34,16.34,16.34h38.128v38.128c0,9.024,7.316,16.34,16.34,16.34
	c9.024,0,16.34-7.316,16.34-16.34V367.66h38.128c9.024,0,16.34-7.316,16.34-16.34C465.701,342.295,458.386,334.979,449.361,334.979z
	"/>
<path d="M310.468,217.872c0-4.512-3.658-8.17-8.17-8.17H155.234c-4.512,0-8.17,3.658-8.17,8.17s3.658,8.17,8.17,8.17h147.064
	C306.81,226.043,310.468,222.384,310.468,217.872z"/>
<path d="M285.527,269.617c4.512,0,8.17-3.658,8.17-8.17c0-4.512-3.658-8.17-8.17-8.17H89.872c-4.512,0-8.17,3.658-8.17,8.17v43.574
	c0,4.512,3.658,8.17,8.17,8.17h171.183c4.512,0,8.17-3.658,8.17-8.17c0-4.512-3.658-8.17-8.17-8.17H98.043v-27.234H285.527z"/>
<circle cx="375.83" cy="84.426" r="8.17"/>
<circle cx="343.149" cy="84.426" r="8.17"/>
<circle cx="408.511" cy="84.426" r="8.17"/>
<path d="M264.176,397.617H16.34c0-35.947,0-181.913,0-272.34h424.851v95.326c0,4.512,3.658,8.17,8.17,8.17
	c4.512,0,8.17-3.658,8.17-8.17V51.745c0-4.512-3.658-8.17-8.17-8.17H8.17c-3.095,0-5.924,1.748-7.307,4.516
	C0,49.815,0,49.815,0,55.721v350.066c0,4.512,3.658,8.17,8.17,8.17h256.005c4.512,0,8.17-3.658,8.17-8.17
	C272.346,401.275,268.688,397.617,264.176,397.617z M441.191,108.936H310.468V59.915h130.723V108.936z M294.128,59.915v49.021H16.34
	c0-22.068,0-39.457,0-49.021H294.128z"/>
<path d="M394.894,234.213c-64.573,0-117.106,52.533-117.106,117.106s52.533,117.106,117.106,117.106S512,415.892,512,351.319
	S459.466,234.213,394.894,234.213z M394.894,452.085c-55.563,0-100.766-45.203-100.766-100.766s45.203-100.766,100.766-100.766
	S495.66,295.756,495.66,351.319S450.455,452.085,394.894,452.085z"/>
<path d="M449.362,326.809h-29.957v-29.957c0-13.516-10.995-24.511-24.511-24.511c-13.516,0-24.511,10.995-24.511,24.511v29.957
	h-29.957c-13.516,0-24.511,10.995-24.511,24.511c0,13.516,10.995,24.511,24.511,24.511h29.957v29.957
	c0,13.516,10.995,24.511,24.511,24.511c13.516,0,24.511-10.995,24.511-24.511V375.83h29.957c13.516,0,24.511-10.995,24.511-24.511
	C473.872,337.803,462.876,326.809,449.362,326.809z M449.362,359.489h-38.128c-4.512,0-8.17,3.658-8.17,8.17v38.128
	c0,4.506-3.665,8.17-8.17,8.17s-8.17-3.665-8.17-8.17V367.66c0-4.512-3.658-8.17-8.17-8.17h-38.128c-4.506,0-8.17-3.665-8.17-8.17
	c0-4.506,3.665-8.17,8.17-8.17h38.128c4.512,0,8.17-3.658,8.17-8.17v-38.128c0-4.506,3.665-8.17,8.17-8.17s8.17,3.665,8.17,8.17
	v38.128c0,4.512,3.658,8.17,8.17,8.17h38.128c4.506,0,8.17,3.665,8.17,8.17C457.532,355.825,453.866,359.489,449.362,359.489z"/>
<g>
</g>
<g>
</g>
<g>
</g>
<g>
</g>
<g>
</g>
<g>
</g>
<g>
</g>
<g>
</g>
<g>
</g>
<g>
</g>
<g>
</g>
<g>
</g>
<g>
</g>
<g>
</g>
<g>
</g>
</svg>
